<svg width="1728" height="761" viewBox="0 0 1728 761" fill="none" xmlns="http://www.w3.org/2000/svg">
<mask id="path-1-inside-1_453_97" fill="white">
<path fill-rule="evenodd" clip-rule="evenodd" d="M-593.465 597.925C-675.242 597.925 -716.569 563.632 -741.19 511.752V586.494H-856.381V0.953613H-737.673V199.595C-713.052 151.232 -671.724 119.577 -593.465 119.577C-467.723 119.577 -367.481 227.733 -367.481 359.63C-367.481 491.528 -467.723 597.925 -593.465 597.925ZM-741.19 359.63C-741.19 430.855 -691.069 490.649 -612.81 490.649C-537.189 490.649 -486.188 428.217 -486.188 358.751C-486.188 287.526 -537.189 226.853 -612.81 226.853C-691.069 226.853 -741.19 288.406 -741.19 359.63ZM-314.538 129.248V586.492H-195.83V352.594C-195.83 276.094 -143.071 230.369 -74.4846 230.369H-57.7776V118.696C-136.916 114.299 -183.52 150.351 -199.348 216.3V129.248H-314.538ZM501.234 129.249V586.494H619.942V335.888C619.942 256.75 664.787 222.457 714.908 222.457C773.822 222.457 813.391 256.75 813.391 335.888V586.494H932.099V306.871C932.099 191.68 856.478 118.697 757.994 118.697C687.649 118.697 641.924 145.077 618.183 196.077V129.249H501.234ZM1574.68 129.249V586.494H1693.39V335.888C1693.39 256.75 1738.23 222.457 1788.35 222.457C1847.27 222.457 1886.84 256.75 1886.84 335.888V586.494H2005.54V335.888C2005.54 247.957 2043.35 222.457 2098.75 222.457C2152.39 222.457 2190.2 256.75 2190.2 335.888V586.494H2308.91V306.871C2308.91 191.68 2233.29 118.697 2134.8 118.697C2054.79 118.697 2010.82 149.473 1980.04 204.87C1950.15 149.473 1895.63 118.697 1831.44 118.697C1761.09 118.697 1715.37 145.077 1691.63 196.077V129.249H1574.68ZM167.788 597.923C42.0461 597.923 -58.196 491.526 -58.196 359.628C-58.196 227.731 42.0461 119.575 167.788 119.575C246.927 119.575 288.255 152.11 312.876 201.351V129.247H430.704V586.492H315.514V511.75C290.893 563.63 249.565 597.923 167.788 597.923ZM60.5118 358.749C60.5118 428.215 111.512 490.647 187.133 490.647C265.393 490.647 315.514 430.853 315.514 359.628C315.514 288.404 265.393 226.852 187.133 226.852C111.512 226.852 60.5118 287.524 60.5118 358.749ZM950.694 127.789L1097.28 586.414H1099.02H1215.58L1076.05 127.789H950.694ZM1223.2 662.24H1096.82V772.922H1215.3L1309.08 774.408L1543.42 127.789H1417.79L1223.2 662.24Z"/>
</mask>
<path d="M-741.19 511.752L-740.287 511.323L-742.19 511.752H-741.19ZM-741.19 586.494V587.494H-740.19V586.494H-741.19ZM-856.381 586.494H-857.381V587.494H-856.381V586.494ZM-856.381 0.953613V-0.0463867H-857.381V0.953613H-856.381ZM-737.673 0.953613H-736.673V-0.0463867H-737.673V0.953613ZM-737.673 199.595H-738.673L-736.782 200.048L-737.673 199.595ZM-314.538 586.492H-315.538V587.492H-314.538V586.492ZM-314.538 129.248V128.248H-315.538V129.248H-314.538ZM-195.83 586.492V587.492H-194.83V586.492H-195.83ZM-57.7776 230.369V231.369H-56.7776V230.369H-57.7776ZM-57.7776 118.696H-56.7776V117.75L-57.7221 117.697L-57.7776 118.696ZM-199.348 216.3H-200.348L-198.375 216.533L-199.348 216.3ZM-199.348 129.248H-198.348V128.248H-199.348V129.248ZM501.234 586.494H500.234V587.494H501.234V586.494ZM501.234 129.249V128.249H500.234V129.249H501.234ZM619.942 586.494V587.494H620.942V586.494H619.942ZM813.391 586.494H812.391V587.494H813.391V586.494ZM932.099 586.494V587.494H933.099V586.494H932.099ZM618.183 196.077H617.183L619.089 196.499L618.183 196.077ZM618.183 129.249H619.183V128.249H618.183V129.249ZM1574.68 586.494H1573.68V587.494H1574.68V586.494ZM1574.68 129.249V128.249H1573.68V129.249H1574.68ZM1693.39 586.494V587.494H1694.39V586.494H1693.39ZM1886.84 586.494H1885.84V587.494H1886.84V586.494ZM2005.54 586.494V587.494H2006.54V586.494H2005.54ZM2190.2 586.494H2189.2V587.494H2190.2V586.494ZM2308.91 586.494V587.494H2309.91V586.494H2308.91ZM1980.04 204.87L1979.16 205.345L1980.03 206.952L1980.92 205.356L1980.04 204.87ZM1691.63 196.077H1690.63L1692.53 196.499L1691.63 196.077ZM1691.63 129.249H1692.63V128.249H1691.63V129.249ZM312.876 201.351L311.981 201.799L313.876 201.351H312.876ZM312.876 129.247V128.247H311.876V129.247H312.876ZM430.704 129.247H431.704V128.247H430.704V129.247ZM430.704 586.492V587.492H431.704V586.492H430.704ZM315.514 586.492H314.514V587.492H315.514V586.492ZM315.514 511.75H316.514L314.61 511.322L315.514 511.75ZM1097.28 586.414L1096.33 586.719L1096.55 587.414H1097.28V586.414ZM950.694 127.789V126.789H949.325L949.742 128.093L950.694 127.789ZM1215.58 586.414V587.414H1216.93L1216.54 586.123L1215.58 586.414ZM1076.05 127.789L1077.01 127.498L1076.8 126.789H1076.05V127.789ZM1096.82 662.24V661.24H1095.82V662.24H1096.82ZM1223.2 662.24V663.24H1223.9L1224.14 662.582L1223.2 662.24ZM1096.82 772.922H1095.82V773.922H1096.82V772.922ZM1215.3 772.922L1215.32 771.922L1215.31 771.922H1215.3V772.922ZM1309.08 774.408L1309.06 775.408L1309.78 775.419L1310.02 774.749L1309.08 774.408ZM1543.42 127.789L1544.36 128.13L1544.85 126.789H1543.42V127.789ZM1417.79 127.789V126.789H1417.09L1416.85 127.447L1417.79 127.789ZM-742.094 512.181C-729.726 538.242 -713.129 559.952 -689.298 575.137C-665.469 590.321 -634.494 598.925 -593.465 598.925V596.925C-634.212 596.925 -664.79 588.383 -688.224 573.45C-711.657 558.519 -728.034 537.142 -740.287 511.323L-742.094 512.181ZM-740.19 586.494V511.752H-742.19V586.494H-740.19ZM-856.381 587.494H-741.19V585.494H-856.381V587.494ZM-857.381 0.953613V586.494H-855.381V0.953613H-857.381ZM-737.673 -0.0463867H-856.381V1.95361H-737.673V-0.0463867ZM-736.673 199.595V0.953613H-738.673V199.595H-736.673ZM-593.465 118.577C-632.73 118.577 -662.816 126.519 -686.199 140.593C-709.586 154.669 -726.189 174.832 -738.564 199.141L-736.782 200.048C-724.536 175.994 -708.165 156.149 -685.168 142.307C-662.167 128.462 -632.459 120.577 -593.465 120.577V118.577ZM-366.481 359.63C-366.481 227.243 -467.11 118.577 -593.465 118.577V120.577C-468.335 120.577 -368.481 228.223 -368.481 359.63H-366.481ZM-593.465 598.925C-467.119 598.925 -366.481 492.028 -366.481 359.63H-368.481C-368.481 491.028 -468.326 596.925 -593.465 596.925V598.925ZM-612.81 489.649C-690.455 489.649 -740.19 430.367 -740.19 359.63H-742.19C-742.19 431.343 -691.683 491.649 -612.81 491.649V489.649ZM-487.188 358.751C-487.188 427.751 -537.824 489.649 -612.81 489.649V491.649C-536.554 491.649 -485.188 428.683 -485.188 358.751H-487.188ZM-612.81 227.853C-537.816 227.853 -487.188 288.001 -487.188 358.751H-485.188C-485.188 287.052 -536.562 225.853 -612.81 225.853V227.853ZM-740.19 359.63C-740.19 288.876 -690.439 227.853 -612.81 227.853V225.853C-691.7 225.853 -742.19 287.935 -742.19 359.63H-740.19ZM-313.538 586.492V129.248H-315.538V586.492H-313.538ZM-195.83 585.492H-314.538V587.492H-195.83V585.492ZM-196.83 352.594V586.492H-194.83V352.594H-196.83ZM-74.4846 229.369C-109.001 229.369 -139.598 240.877 -161.572 262.074C-183.552 283.277 -196.83 314.104 -196.83 352.594H-194.83C-194.83 314.584 -181.729 284.298 -160.183 263.514C-138.631 242.723 -108.555 231.369 -74.4846 231.369V229.369ZM-57.7776 229.369H-74.4846V231.369H-57.7776V229.369ZM-58.7776 118.696V230.369H-56.7776V118.696H-58.7776ZM-198.375 216.533C-190.505 183.739 -175.008 158.471 -151.725 141.934C-128.436 125.392 -97.2432 117.505 -57.8331 119.694L-57.7221 117.697C-97.4505 115.49 -129.129 123.431 -152.883 140.303C-176.644 157.18 -192.363 182.912 -200.32 216.067L-198.375 216.533ZM-200.348 129.248V216.3H-198.348V129.248H-200.348ZM-314.538 130.248H-199.348V128.248H-314.538V130.248ZM502.234 586.494V129.249H500.234V586.494H502.234ZM619.942 585.494H501.234V587.494H619.942V585.494ZM618.942 335.888V586.494H620.942V335.888H618.942ZM714.908 221.457C689.617 221.457 665.597 230.113 647.903 248.808C630.209 267.503 618.942 296.131 618.942 335.888H620.942C620.942 296.508 632.096 268.419 649.356 250.183C666.615 231.947 690.077 223.457 714.908 223.457V221.457ZM814.391 335.888C814.391 296.164 804.46 267.525 786.973 248.813C769.477 230.091 744.558 221.457 714.908 221.457V223.457C744.172 223.457 768.495 231.969 785.512 250.178C802.538 268.398 812.391 296.474 812.391 335.888H814.391ZM814.391 586.494V335.888H812.391V586.494H814.391ZM932.099 585.494H813.391V587.494H932.099V585.494ZM931.099 306.871V586.494H933.099V306.871H931.099ZM757.994 119.697C806.981 119.697 850.24 137.844 881.255 170.279C912.271 202.714 931.099 249.499 931.099 306.871H933.099C933.099 249.053 914.117 201.751 882.701 168.897C851.284 136.042 807.491 117.697 757.994 117.697V119.697ZM619.089 196.499C630.879 171.173 648.107 151.993 671.1 139.135C694.105 126.27 722.943 119.697 757.994 119.697V117.697C722.7 117.697 693.503 124.315 670.124 137.389C646.733 150.47 629.228 169.981 617.276 195.655L619.089 196.499ZM617.183 129.249V196.077H619.183V129.249H617.183ZM501.234 130.249H618.183V128.249H501.234V130.249ZM1575.68 586.494V129.249H1573.68V586.494H1575.68ZM1693.39 585.494H1574.68V587.494H1693.39V585.494ZM1692.39 335.888V586.494H1694.39V335.888H1692.39ZM1788.35 221.457C1763.06 221.457 1739.04 230.113 1721.35 248.808C1703.65 267.503 1692.39 296.131 1692.39 335.888H1694.39C1694.39 296.508 1705.54 268.419 1722.8 250.183C1740.06 231.947 1763.52 223.457 1788.35 223.457V221.457ZM1887.84 335.888C1887.84 296.164 1877.9 267.525 1860.42 248.813C1842.92 230.091 1818 221.457 1788.35 221.457V223.457C1817.62 223.457 1841.94 231.969 1858.96 250.178C1875.98 268.398 1885.84 296.474 1885.84 335.888H1887.84ZM1887.84 586.494V335.888H1885.84V586.494H1887.84ZM2005.54 585.494H1886.84V587.494H2005.54V585.494ZM2004.54 335.888V586.494H2006.54V335.888H2004.54ZM2098.75 221.457C2070.92 221.457 2047.29 227.863 2030.65 245.512C2014.02 263.145 2004.54 291.807 2004.54 335.888H2006.54C2006.54 292.038 2015.98 263.984 2032.1 246.884C2048.21 229.8 2071.19 223.457 2098.75 223.457V221.457ZM2191.2 335.888C2191.2 296.174 2181.71 267.547 2165.34 248.837C2148.96 230.108 2125.79 221.457 2098.75 221.457V223.457C2125.35 223.457 2147.91 231.952 2163.84 250.154C2179.78 268.376 2189.2 296.464 2189.2 335.888H2191.2ZM2191.2 586.494V335.888H2189.2V586.494H2191.2ZM2308.91 585.494H2190.2V587.494H2308.91V585.494ZM2307.91 306.871V586.494H2309.91V306.871H2307.91ZM2134.8 119.697C2183.79 119.697 2227.05 137.844 2258.06 170.279C2289.08 202.714 2307.91 249.499 2307.91 306.871H2309.91C2309.91 249.053 2290.93 201.751 2259.51 168.897C2228.09 136.042 2184.3 117.697 2134.8 117.697V119.697ZM1980.92 205.356C1996.24 177.768 2014.82 156.377 2039.46 141.872C2064.11 127.366 2094.92 119.697 2134.8 119.697V117.697C2094.67 117.697 2063.48 125.417 2038.45 140.148C2013.42 154.88 1994.62 176.576 1979.17 204.385L1980.92 205.356ZM1831.44 119.697C1895.29 119.697 1949.45 150.293 1979.16 205.345L1980.92 204.395C1950.84 148.654 1895.97 117.697 1831.44 117.697V119.697ZM1692.53 196.499C1704.32 171.173 1721.55 151.993 1744.55 139.135C1767.55 126.27 1796.39 119.697 1831.44 119.697V117.697C1796.15 117.697 1766.95 124.315 1743.57 137.389C1720.18 150.47 1702.67 169.981 1690.72 195.655L1692.53 196.499ZM1690.63 129.249V196.077H1692.63V129.249H1690.63ZM1574.68 130.249H1691.63V128.249H1574.68V130.249ZM-59.196 359.628C-59.196 492.026 41.4427 598.923 167.788 598.923V596.923C42.6496 596.923 -57.196 491.026 -57.196 359.628H-59.196ZM167.788 118.575C41.4334 118.575 -59.196 227.241 -59.196 359.628H-57.196C-57.196 228.221 42.6589 120.575 167.788 120.575V118.575ZM313.77 200.904C301.397 176.158 284.796 155.554 261.299 141.145C237.804 126.738 207.496 118.575 167.788 118.575V120.575C207.22 120.575 237.144 128.679 260.254 142.85C283.36 157.019 299.733 177.303 311.981 201.799L313.77 200.904ZM311.876 129.247V201.351H313.876V129.247H311.876ZM430.704 128.247H312.876V130.247H430.704V128.247ZM431.704 586.492V129.247H429.704V586.492H431.704ZM315.514 587.492H430.704V585.492H315.514V587.492ZM314.514 511.75V586.492H316.514V511.75H314.514ZM167.788 598.923C208.818 598.923 239.793 590.319 263.622 575.135C287.452 559.95 304.049 538.24 316.417 512.179L314.61 511.322C302.357 537.14 285.98 558.517 262.547 573.448C239.113 588.381 208.536 596.923 167.788 596.923V598.923ZM187.133 489.647C112.147 489.647 61.5118 427.749 61.5118 358.749H59.5118C59.5118 428.681 110.877 491.647 187.133 491.647V489.647ZM314.514 359.628C314.514 430.365 264.779 489.647 187.133 489.647V491.647C266.007 491.647 316.514 431.342 316.514 359.628H314.514ZM187.133 227.852C264.762 227.852 314.514 288.874 314.514 359.628H316.514C316.514 287.933 266.023 225.852 187.133 225.852V227.852ZM61.5118 358.749C61.5118 287.999 112.139 227.852 187.133 227.852V225.852C110.885 225.852 59.5118 287.05 59.5118 358.749H61.5118ZM1098.23 586.11L951.647 127.484L949.742 128.093L1096.33 586.719L1098.23 586.11ZM1099.02 585.414H1097.28V587.414H1099.02V585.414ZM1215.58 585.414H1099.02V587.414H1215.58V585.414ZM1075.1 128.08L1214.62 586.706L1216.54 586.123L1077.01 127.498L1075.1 128.08ZM950.694 128.789H1076.05V126.789H950.694V128.789ZM1096.82 663.24H1223.2V661.24H1096.82V663.24ZM1097.82 772.922V662.24H1095.82V772.922H1097.82ZM1215.3 771.922H1096.82V773.922H1215.3V771.922ZM1215.29 773.922L1309.06 775.408L1309.09 773.408L1215.32 771.922L1215.29 773.922ZM1310.02 774.749L1544.36 128.13L1542.48 127.448L1308.14 774.068L1310.02 774.749ZM1543.42 126.789H1417.79V128.789H1543.42V126.789ZM1416.85 127.447L1222.26 661.898L1224.14 662.582L1418.73 128.131L1416.85 127.447Z" fill="white" fill-opacity="0.2" mask="url(#path-1-inside-1_453_97)"/>
</svg>
